<svg width="164" height="22" viewBox="0 0 164 22" fill="none" xmlns="http://www.w3.org/2000/svg">
<g clip-path="url(#clip0_113_2755)">
<path fill-rule="evenodd" clip-rule="evenodd" d="M16.4029 5.5388V17.1984C17.7947 15.8307 18.8385 14.2981 18.8385 12.7654V4.02557C17.1386 4.18078 13.4901 4.38448 9.65284 3.68607C5.08983 2.85185 2.30629 1.75573 -6.85646e-05 0C5.47753 5.6746 16.4029 5.5388 16.4029 5.5388ZM18.8385 1.94974V0C15.886 0.873016 12.7147 1.35802 9.41425 1.35802C6.11377 1.35802 2.94253 0.873016 -0.0100098 0C-6.85646e-05 0 7.17748 4.29718 18.8385 1.94974ZM11.6808 7.97355V20.7293C12.4165 20.2831 13.2714 19.7399 14.1164 19.1093V6.93563C3.37 5.93651 -6.85646e-05 0 -6.85646e-05 0C3.66823 7.29453 11.6808 7.97355 11.6808 7.97355ZM9.41425 21.9903V9.16667C1.2227 5.80071 -6.85646e-05 0 -6.85646e-05 0V12.7751C-6.85646e-05 17.3827 9.42419 22 9.42419 22L9.41425 21.9903Z" fill="#E20511"/>
<path d="M33.3825 8.59435C33.3825 9.38976 33.0942 10.0009 32.5177 10.4471C31.9411 10.8933 31.1955 11.1067 30.2908 11.1067C29.3862 11.1067 28.6605 10.8836 28.0839 10.4471C27.5073 10.0106 27.219 9.38976 27.219 8.59435V3.93826H28.3026V8.59435C28.3026 8.89505 28.3722 9.15696 28.5014 9.38006C28.6306 9.60317 28.7996 9.76807 29.0184 9.87477C29.2371 9.98147 29.4558 10.0688 29.6745 10.127C29.8932 10.1852 30.1119 10.2143 30.3206 10.2143C30.5294 10.2143 30.7481 10.1852 30.9569 10.127C31.1657 10.0688 31.3744 9.99117 31.5832 9.87477C31.7919 9.76807 31.9609 9.60317 32.0902 9.38006C32.2194 9.15696 32.289 8.90475 32.289 8.59435V3.93826H33.3726L33.3925 8.59435H33.3825Z" fill="#233559"/>
<path d="M40.242 11.0194H39.1584V7.37213C39.1584 7.07143 39.0391 6.82892 38.7906 6.65432C38.542 6.47972 38.2339 6.39241 37.866 6.39241C37.5479 6.39241 37.2298 6.47002 36.9316 6.60582C36.6333 6.74162 36.3947 6.94532 36.2257 7.21693V11.0194H35.1421V6.92592L34.8141 5.6746H35.9076L36.2257 6.93562C36.345 6.47972 36.6035 6.13051 36.9813 5.88801C37.359 5.6455 37.7865 5.5291 38.2537 5.5291C38.7806 5.5291 39.2479 5.6649 39.6455 5.94621C40.0432 6.21781 40.242 6.58642 40.242 7.05203V11.0194Z" fill="#233559"/>
<path d="M43.115 4.18079C42.9658 4.33599 42.777 4.41359 42.5583 4.41359C42.3396 4.41359 42.1507 4.33599 41.9916 4.18079C41.8326 4.02558 41.753 3.84128 41.753 3.62788C41.753 3.41447 41.8326 3.23017 41.9916 3.07497C42.1507 2.91976 42.3396 2.84216 42.5583 2.84216C42.777 2.84216 42.9658 2.91976 43.115 3.07497C43.2641 3.23017 43.3436 3.41447 43.3436 3.62788C43.3436 3.84128 43.2641 4.02558 43.115 4.18079ZM43.0851 11H42.0016V5.65521H43.0851V10.9903V11Z" fill="#233559"/>
<path d="M50.1732 5.6552L47.6879 10.9903H46.6839L44.1986 5.6552H45.3418L47.1809 9.78747L49.0201 5.6552H50.1633H50.1732Z" fill="#233559"/>
<path d="M56.2572 8.60406H51.8036C51.8632 9.14727 52.0819 9.57408 52.4498 9.87478C52.8275 10.1755 53.2649 10.3307 53.762 10.3307C54.4479 10.3307 55.0345 10.0591 55.5216 9.50618L56.128 10.1949C55.5017 10.8642 54.7064 11.194 53.7222 11.194C52.738 11.194 52.0521 10.9127 51.5451 10.3598C51.0381 9.79718 50.7796 9.12787 50.7796 8.34215C50.7796 7.44974 51.048 6.76103 51.5849 6.26632C52.1217 5.78131 52.7778 5.5388 53.5333 5.5388C54.4082 5.5388 55.0941 5.79101 55.5713 6.27602C56.0485 6.76103 56.2871 7.40124 56.2871 8.17725L56.2473 8.59436L56.2572 8.60406ZM55.2035 8.02205C55.2035 7.55644 55.0643 7.16843 54.776 6.85803C54.4976 6.55732 54.0801 6.40212 53.5333 6.40212C53.0661 6.40212 52.6784 6.53792 52.3603 6.80953C52.0521 7.08113 51.8732 7.46914 51.8135 7.99295L55.2035 8.01235V8.02205Z" fill="#233559"/>
<path d="M61.0588 6.72221C60.7507 6.63491 60.4126 6.60581 60.0647 6.60581C59.5676 6.60581 59.17 6.72221 58.8718 6.96472V11.0194H57.7882V6.91622L57.4601 5.66489H58.5536L58.832 6.79982H58.8519C59.0805 5.9656 59.7565 5.54849 60.8998 5.54849H61.0489V6.72221H61.0588Z" fill="#233559"/>
<path d="M66.8247 9.52558C66.8247 10.0688 66.5861 10.4762 66.1289 10.7478C65.6616 11.0194 65.1049 11.1649 64.4587 11.1649C63.4646 11.1649 62.6494 10.8933 61.9933 10.3404L62.5003 9.53528C62.729 9.76808 63.0173 9.96208 63.3751 10.1076C63.733 10.2531 64.1008 10.3307 64.4687 10.3307C64.8166 10.3307 65.1149 10.2628 65.3733 10.1367C65.6318 10.0106 65.761 9.82628 65.761 9.57408C65.761 9.36067 65.6716 9.19577 65.4926 9.07937C65.3137 8.96296 65.095 8.88536 64.8365 8.84656C64.578 8.80776 64.2897 8.75926 63.9816 8.70106C63.6734 8.63316 63.3851 8.56526 63.1266 8.47796C62.8582 8.39065 62.6494 8.23545 62.4705 8.01235C62.2916 7.78924 62.2021 7.48854 62.2021 7.12963C62.2021 6.60582 62.4208 6.20812 62.8483 5.94621C63.2757 5.68431 63.8026 5.5388 64.419 5.5388C65.3336 5.5388 66.1289 5.82011 66.785 6.38272L66.278 7.18783C66.0394 6.94533 65.761 6.75133 65.423 6.60582C65.085 6.46032 64.747 6.38272 64.3991 6.38272C64.0909 6.38272 63.8126 6.45062 63.5839 6.56702C63.3553 6.68342 63.2459 6.86773 63.2459 7.11023C63.2459 7.32364 63.3354 7.48854 63.5143 7.60494C63.6933 7.72134 63.912 7.80864 64.1704 7.84745C64.4389 7.88625 64.7172 7.92505 65.0154 7.99295C65.3137 8.06085 65.602 8.12875 65.8604 8.21605C66.1289 8.30335 66.3376 8.45856 66.5166 8.68166C66.6955 8.90476 66.785 9.20547 66.785 9.56438L66.8247 9.53528V9.52558Z" fill="#233559"/>
<path d="M69.3498 4.18079C69.2007 4.33599 69.0118 4.41359 68.7931 4.41359C68.5744 4.41359 68.3855 4.33599 68.2264 4.18079C68.0674 4.02558 67.9879 3.84128 67.9879 3.62788C67.9879 3.41447 68.0674 3.23017 68.2264 3.07497C68.3855 2.91976 68.5744 2.84216 68.7931 2.84216C69.0118 2.84216 69.2007 2.91976 69.3498 3.07497C69.4989 3.23017 69.5784 3.41447 69.5784 3.62788C69.5784 3.84128 69.4989 4.02558 69.3498 4.18079ZM69.32 11H68.2364V5.65521H69.32V10.9903V11Z" fill="#233559"/>
<path d="M76.4777 11H75.3742L75.0561 9.81657H75.0362C74.9467 10.2531 74.7479 10.5926 74.4099 10.8254C74.0818 11.0679 73.6941 11.1843 73.2468 11.1843C72.4813 11.1843 71.8749 10.9127 71.4375 10.3598C70.9901 9.80687 70.7813 9.15696 70.7813 8.41004C70.7813 8.05114 70.841 7.70193 70.9503 7.37213C71.0597 7.04232 71.2287 6.74161 71.4474 6.46031C71.6661 6.179 71.9544 5.9656 72.3123 5.8007C72.6702 5.63579 73.0778 5.54849 73.5251 5.54849C74.1315 5.54849 74.6385 5.7231 75.0561 6.0723V3.20105H76.1396V9.75837L76.4677 11H76.4777ZM75.0561 7.06172C74.9268 6.82892 74.728 6.65431 74.4695 6.52821C74.2111 6.40211 73.9426 6.33421 73.6444 6.33421C73.1672 6.33421 72.7497 6.49911 72.4117 6.83862C72.0737 7.17812 71.9047 7.67283 71.9047 8.33244C71.9047 8.99205 72.0737 9.48676 72.4117 9.82627C72.7497 10.1658 73.1573 10.3404 73.6345 10.3404C73.9228 10.3404 74.2011 10.2725 74.4596 10.1464C74.7181 10.0203 74.9169 9.83597 75.0561 9.60317V7.06172Z" fill="#233559"/>
<path d="M82.9891 10.9709H81.8857L81.5974 9.84568H81.5775C81.4681 10.2531 81.2196 10.5732 80.8418 10.8157C80.4641 11.0582 80.0267 11.1746 79.5495 11.1746C78.9729 11.1746 78.5156 11.0194 78.1577 10.709C77.7998 10.3986 77.6308 10.03 77.6308 9.61288C77.6308 9.31217 77.7104 9.05027 77.8595 8.83686C78.0086 8.62346 78.1975 8.46826 78.4361 8.36155C78.6747 8.25485 78.9232 8.15785 79.2115 8.08995C79.4898 8.01235 79.7781 7.96385 80.0565 7.91535C80.3348 7.86685 80.5933 7.82805 80.8319 7.77954C81.0705 7.73104 81.2594 7.66314 81.4085 7.56614C81.5576 7.47884 81.6371 7.35274 81.6371 7.20723C81.6371 6.94533 81.498 6.74163 81.2196 6.59612C80.9412 6.46032 80.653 6.38272 80.3448 6.38272C79.9869 6.38272 79.639 6.47002 79.291 6.62522C78.9431 6.78043 78.6448 6.99383 78.3864 7.25573L77.8396 6.47002C78.5752 5.84921 79.4202 5.5388 80.3448 5.5388C80.981 5.5388 81.5278 5.69401 81.9851 5.99471C82.4424 6.29542 82.671 6.74163 82.671 7.32364V9.76808L82.9891 10.9806V10.9709ZM81.5874 7.98325C81.4681 8.10935 81.2395 8.22575 80.9114 8.31305C80.5834 8.41005 80.2652 8.47796 79.9471 8.53616C79.639 8.59436 79.3507 8.69136 79.1121 8.84656C78.8635 9.00177 78.7442 9.21517 78.7442 9.47708C78.7442 9.75838 78.8536 9.98148 79.0723 10.127C79.291 10.2725 79.5694 10.3501 79.9074 10.3501C80.2454 10.3501 80.5535 10.2822 80.8717 10.1658C81.1798 10.0494 81.4184 9.88448 81.5775 9.68078V7.98325H81.5874Z" fill="#233559"/>
<path d="M89.8585 11H88.755L88.4369 9.81657H88.417C88.3276 10.2531 88.1287 10.5926 87.7907 10.8254C87.4627 11.0679 87.075 11.1843 86.6276 11.1843C85.8621 11.1843 85.2557 10.9127 84.8183 10.3598C84.371 9.80687 84.1622 9.15696 84.1622 8.41004C84.1622 8.05114 84.2218 7.70193 84.3312 7.37213C84.4406 7.04232 84.6096 6.74161 84.8283 6.46031C85.047 6.179 85.3353 5.9656 85.6931 5.8007C86.051 5.63579 86.4586 5.54849 86.906 5.54849C87.5124 5.54849 88.0194 5.7231 88.4369 6.0723V3.20105H89.5205V9.75837L89.8486 11H89.8585ZM88.4369 7.06172C88.3077 6.82892 88.1089 6.65431 87.8504 6.52821C87.5919 6.40211 87.3235 6.33421 87.0253 6.33421C86.5481 6.33421 86.1306 6.49911 85.7926 6.83862C85.4546 7.17812 85.2856 7.67283 85.2856 8.33244C85.2856 8.99205 85.4546 9.48676 85.7926 9.82627C86.1306 10.1658 86.5381 10.3404 87.0153 10.3404C87.3036 10.3404 87.582 10.2725 87.8404 10.1464C88.0989 10.0203 88.2977 9.83597 88.4369 9.60317V7.06172Z" fill="#233559"/>
<path d="M100.396 9.70018C99.9687 10.1852 99.4617 10.5538 98.8752 10.806C98.2886 11.0582 97.6822 11.1843 97.0559 11.1843C96.5589 11.1843 96.0717 11.097 95.6144 10.9321C95.1472 10.7672 94.7396 10.5344 94.3817 10.2337C94.0239 9.93298 93.7356 9.54498 93.5168 9.05997C93.2981 8.57496 93.1987 8.06085 93.1987 7.47884C93.1987 6.89683 93.2981 6.36332 93.5168 5.88801C93.7356 5.4127 94.0139 5.02469 94.3718 4.71429C94.7297 4.41358 95.1373 4.18078 95.5946 4.01588C96.0519 3.85097 96.539 3.76367 97.036 3.76367C97.6723 3.76367 98.2687 3.88977 98.8553 4.14198C99.4418 4.39418 99.9488 4.76279 100.376 5.2478L99.4816 6.28572C99.1833 5.89771 98.8155 5.60671 98.388 5.3933C97.9606 5.1799 97.5331 5.0829 97.0857 5.0829C96.4495 5.0829 95.9226 5.2866 95.4951 5.70371C95.0577 6.12081 94.849 6.70282 94.849 7.46914C94.849 8.23545 95.0677 8.81746 95.4951 9.22487C95.9226 9.63228 96.4594 9.85538 97.0857 9.85538C97.5331 9.85538 97.9606 9.75838 98.398 9.54498C98.8354 9.33157 99.2032 9.04057 99.5014 8.65256L100.396 9.70018Z" fill="#233559"/>
<path d="M106.987 8.18695C106.987 8.32275 106.987 8.49735 106.957 8.70106H102.901C102.951 9.11816 103.12 9.42857 103.408 9.64197C103.697 9.85538 104.055 9.96208 104.462 9.96208C104.77 9.96208 105.078 9.89418 105.367 9.76807C105.655 9.64197 105.904 9.46737 106.102 9.23457L106.788 10.2822C106.44 10.6023 106.073 10.8351 105.685 10.9709C105.297 11.1067 104.86 11.1843 104.353 11.1843C103.408 11.1843 102.683 10.903 102.166 10.3404C101.649 9.77777 101.39 9.10846 101.39 8.32275C101.39 7.43033 101.669 6.74162 102.215 6.23721C102.762 5.7425 103.418 5.4903 104.184 5.4903C105.049 5.4903 105.735 5.7425 106.212 6.23721C106.689 6.73192 106.937 7.38183 106.937 8.15785L106.977 8.17725L106.987 8.18695ZM105.516 7.92504C105.516 7.55643 105.407 7.26543 105.178 7.04233C104.949 6.81922 104.641 6.71252 104.243 6.71252C103.886 6.71252 103.587 6.80952 103.339 7.01322C103.09 7.21693 102.951 7.51763 102.911 7.92504H105.516ZM105.645 2.60934L104.422 4.51058H103.617L103.667 2.60934H105.645Z" fill="#233559"/>
<path d="M113.012 9.43826C113.012 9.83597 112.892 10.1658 112.654 10.4277C112.415 10.6993 112.127 10.8836 111.789 11C111.451 11.1067 111.063 11.1649 110.626 11.1649C110.109 11.1649 109.602 11.0776 109.105 10.9127C108.618 10.7478 108.21 10.5247 107.902 10.2531L108.548 9.14726C108.806 9.39946 109.115 9.60317 109.492 9.74867C109.87 9.89417 110.248 9.97177 110.636 9.97177C110.894 9.97177 111.103 9.92327 111.292 9.84567C111.471 9.75837 111.56 9.63227 111.56 9.46737C111.56 9.32186 111.471 9.20546 111.312 9.11816C111.153 9.03086 110.944 8.98236 110.695 8.95326C110.447 8.92416 110.188 8.87565 109.89 8.81745C109.602 8.74955 109.333 8.67195 109.085 8.57495C108.836 8.48765 108.628 8.32275 108.468 8.09964C108.309 7.86684 108.22 7.58553 108.22 7.24603C108.22 6.84832 108.329 6.51851 108.558 6.24691C108.787 5.985 109.065 5.8007 109.393 5.6843C109.721 5.5776 110.089 5.51939 110.496 5.51939C111.481 5.51939 112.306 5.8007 112.992 6.36331L112.346 7.45943C112.107 7.22662 111.829 7.04232 111.501 6.91622C111.172 6.79012 110.844 6.72222 110.506 6.72222C110.258 6.72222 110.059 6.77072 109.91 6.84832C109.761 6.92592 109.681 7.05202 109.681 7.20722C109.681 7.36243 109.771 7.47883 109.93 7.57583C110.089 7.66313 110.298 7.73103 110.546 7.76013C110.795 7.78924 111.053 7.83774 111.341 7.89594C111.62 7.96384 111.888 8.04144 112.137 8.13844C112.385 8.23544 112.594 8.39065 112.753 8.60405C112.912 8.82715 113.002 9.09876 113.002 9.42857H113.022L113.012 9.43826Z" fill="#233559"/>
<path d="M119.543 11H117.972L117.674 9.84567H117.654C117.565 10.2725 117.366 10.6023 117.018 10.8448C116.68 11.0873 116.292 11.2037 115.855 11.2037C115.348 11.2037 114.92 11.0582 114.582 10.7575C114.244 10.4568 114.075 10.0979 114.075 9.65166C114.075 9.42856 114.115 9.23456 114.195 9.05995C114.274 8.88535 114.383 8.74955 114.503 8.63315C114.622 8.52644 114.781 8.41974 114.97 8.34214C115.159 8.26454 115.338 8.19664 115.497 8.14814C115.656 8.09964 115.855 8.05114 116.083 8.01234C116.759 7.87653 117.177 7.76983 117.326 7.71163C117.575 7.61463 117.694 7.46913 117.694 7.29452C117.694 7.13932 117.614 7.01322 117.465 6.90651C117.316 6.79981 117.107 6.76101 116.839 6.76101C116.511 6.76101 116.173 6.83861 115.825 6.97442C115.487 7.11022 115.179 7.30422 114.93 7.55643L114.165 6.49911C114.93 5.8395 115.805 5.50969 116.799 5.50969C117.087 5.50969 117.376 5.54849 117.644 5.61639C117.913 5.69399 118.171 5.79099 118.41 5.9268C118.648 6.0626 118.837 6.2566 118.976 6.50881C119.115 6.76101 119.195 7.03262 119.195 7.34302V9.75837L119.533 11H119.543ZM117.634 8.29364C117.545 8.39064 117.386 8.47794 117.157 8.55554C116.918 8.63315 116.7 8.68165 116.481 8.73015C116.262 8.77865 116.064 8.85625 115.885 8.97265C115.706 9.07935 115.616 9.23456 115.616 9.40916C115.616 9.62256 115.696 9.77777 115.855 9.87477C116.014 9.97177 116.213 10.03 116.461 10.03C116.69 10.03 116.918 9.99117 117.137 9.92327C117.366 9.84567 117.535 9.74867 117.654 9.63226L117.634 8.30334V8.29364Z" fill="#233559"/>
<path d="M124.494 7.14902C124.036 7.03262 123.649 6.97442 123.291 6.97442C122.913 6.97442 122.625 7.04232 122.406 7.17812V10.9903H120.845V6.90652L120.507 5.65519H122.088L122.386 6.94532H122.406C122.505 6.49911 122.714 6.1402 123.042 5.9074C123.36 5.66489 123.758 5.54849 124.245 5.54849C124.354 5.54849 124.444 5.54849 124.494 5.54849V7.14902Z" fill="#233559"/>
<path d="M134.972 3.93826L131.781 11H130.458L127.267 3.93826H128.908L131.114 9.09876L133.321 3.93826H134.962H134.972Z" fill="#233559"/>
<path d="M140.807 11H139.236L138.938 9.84567H138.918C138.829 10.2725 138.63 10.6023 138.282 10.8448C137.944 11.0873 137.556 11.2037 137.119 11.2037C136.612 11.2037 136.185 11.0582 135.847 10.7575C135.509 10.4568 135.34 10.0979 135.34 9.65166C135.34 9.42856 135.379 9.23456 135.459 9.05995C135.538 8.88535 135.648 8.74955 135.767 8.63315C135.886 8.52644 136.045 8.41974 136.234 8.34214C136.423 8.26454 136.602 8.19664 136.761 8.14814C136.92 8.09964 137.119 8.05114 137.348 8.01234C138.024 7.87653 138.441 7.76983 138.59 7.71163C138.839 7.61463 138.958 7.46913 138.958 7.29452C138.958 7.13932 138.879 7.01322 138.729 6.90651C138.58 6.79981 138.372 6.76101 138.103 6.76101C137.775 6.76101 137.437 6.83861 137.089 6.97442C136.751 7.11022 136.443 7.30422 136.194 7.55643L135.429 6.49911C136.194 5.8395 137.069 5.50969 138.063 5.50969C138.352 5.50969 138.64 5.54849 138.908 5.61639C139.177 5.69399 139.435 5.79099 139.674 5.9268C139.912 6.0626 140.101 6.2566 140.241 6.50881C140.38 6.76101 140.459 7.03262 140.459 7.34302V9.75837L140.797 11H140.807ZM138.898 8.29364C138.809 8.39064 138.65 8.47794 138.421 8.55554C138.183 8.63315 137.964 8.68165 137.745 8.73015C137.527 8.77865 137.328 8.85625 137.149 8.97265C136.97 9.07935 136.88 9.23456 136.88 9.40916C136.88 9.62256 136.96 9.77777 137.119 9.87477C137.278 9.97177 137.477 10.03 137.725 10.03C137.954 10.03 138.183 9.99117 138.401 9.92327C138.63 9.84567 138.799 9.74867 138.918 9.63226L138.898 8.30334V8.29364Z" fill="#233559"/>
<path d="M143.67 11H142.109V3.20105H143.67V11Z" fill="#233559"/>
<path d="M146.861 11H145.301V3.20105H146.861V11Z" fill="#233559"/>
<path d="M153.83 8.18694C153.83 8.32275 153.83 8.49735 153.8 8.70105H149.744C149.794 9.11816 149.963 9.42857 150.251 9.64197C150.54 9.85537 150.897 9.96208 151.305 9.96208C151.613 9.96208 151.921 9.89418 152.21 9.76807C152.498 9.64197 152.747 9.46737 152.945 9.23456L153.631 10.2822C153.283 10.6023 152.916 10.8351 152.528 10.9709C152.14 11.1067 151.703 11.1843 151.196 11.1843C150.251 11.1843 149.526 10.903 149.009 10.3404C148.492 9.77777 148.233 9.10846 148.233 8.32275C148.233 7.43033 148.512 6.74162 149.058 6.23721C149.605 5.7425 150.261 5.4903 151.027 5.4903C151.892 5.4903 152.578 5.7425 153.055 6.23721C153.532 6.73192 153.78 7.38183 153.78 8.15784L153.82 8.17724L153.83 8.18694ZM152.359 7.92504C152.359 7.55643 152.249 7.26543 152.021 7.04232C151.792 6.81922 151.484 6.71252 151.086 6.71252C150.728 6.71252 150.43 6.80952 150.182 7.01322C149.933 7.21693 149.794 7.51763 149.754 7.92504H152.359Z" fill="#233559"/>
<path d="M156.703 11.5917C156.703 12.1931 156.514 12.6393 156.137 12.9497C155.759 13.2602 155.291 13.4154 154.735 13.4154C154.456 13.4154 154.148 13.3669 153.84 13.2699V12.0961C154.069 12.1446 154.277 12.1737 154.456 12.1737C154.924 12.1737 155.162 11.9797 155.162 11.5917V5.64551H156.723V11.582L156.703 11.5917ZM156.902 3.78308C156.902 4.05469 156.803 4.27779 156.624 4.46209C156.445 4.6464 156.206 4.7337 155.938 4.7337C155.669 4.7337 155.431 4.6464 155.242 4.46209C155.053 4.27779 154.963 4.05469 154.963 3.79278C154.963 3.53088 155.063 3.30777 155.242 3.12347C155.421 2.93916 155.659 2.84216 155.928 2.84216C156.196 2.84216 156.425 2.93916 156.614 3.12347C156.803 3.30777 156.892 3.53088 156.892 3.79278L156.902 3.78308Z" fill="#233559"/>
<path d="M164 8.35184C164 9.17636 163.722 9.86507 163.165 10.3889C162.608 10.9127 161.892 11.1843 161.028 11.1843C160.163 11.1843 159.437 10.9127 158.88 10.3889C158.324 9.86507 158.045 9.18606 158.045 8.35184C158.045 7.51763 158.324 6.82892 158.88 6.30511C159.437 5.7813 160.153 5.51939 161.028 5.51939C161.902 5.51939 162.608 5.791 163.165 6.31481C163.722 6.83862 164 7.51763 164 8.35184ZM162.479 8.32274C162.479 7.81834 162.34 7.41093 162.061 7.11022C161.793 6.80952 161.435 6.66401 161.018 6.66401C160.6 6.66401 160.242 6.81922 159.974 7.11992C159.705 7.42063 159.556 7.82804 159.556 8.33245C159.556 8.83685 159.695 9.23456 159.974 9.53527C160.252 9.83597 160.6 9.99118 161.018 9.99118C161.435 9.99118 161.793 9.84567 162.061 9.53527C162.34 9.23456 162.479 8.83685 162.479 8.34215V8.31304V8.32274Z" fill="#233559"/>
</g>
<defs>
<clipPath id="clip0_113_2755">
<rect width="164" height="22" fill="white"/>
</clipPath>
</defs>
</svg>
